<svg width="498" height="419" viewBox="0 0 498 419" fill="none" xmlns="http://www.w3.org/2000/svg">
<g style="mix-blend-mode:multiply" opacity="0.1" clip-path="url(#clip0_1304_21)">
<path d="M466.535 -78.3614C471.017 -74.8691 473.141 -69.1446 472.021 -63.5748C453.4 29.1051 587.424 97.7113 588.778 98.3917C596.176 102.115 599.163 111.126 595.448 118.525C591.733 125.924 582.73 128.916 575.328 125.207C573.76 124.422 536.542 105.601 501.544 73.0819C461.508 35.8846 440.657 -4.36316 440.25 -44.6285C401.107 -35.1809 356.984 -45.5625 311.128 -75.2906C271.042 -101.274 243.695 -132.768 242.549 -134.096C237.14 -140.371 237.841 -149.842 244.115 -155.251C250.391 -160.66 259.858 -159.956 265.27 -153.685C266.256 -152.544 365.538 -39.3556 450.856 -80.0666C455.983 -82.5141 462.054 -81.8531 466.535 -78.3614Z" fill="#E2DFF4"/>
<path d="M450.856 -80.0666C365.539 -39.355 266.256 -152.544 265.27 -153.685C259.858 -159.956 250.39 -160.66 244.115 -155.251C237.841 -149.842 237.139 -140.371 242.549 -134.096C243.694 -132.767 271.041 -101.274 311.128 -75.2906C356.983 -45.5617 401.107 -35.1809 440.25 -44.6285L466.536 -78.3622C462.054 -81.8531 455.983 -82.5141 450.856 -80.0666Z" fill="#BEBCDD"/>
<path d="M283.055 -217.983C281.329 -214.092 281.346 -209.655 283.082 -205.766C285.721 -199.895 346.9 -66.0942 446.387 -52.5037C483.888 40.636 628.578 67.2627 634.917 68.3849C639.112 69.1184 643.418 68.0496 646.769 65.4249L690.557 31.1766L684.938 12.4649L527.055 -55.7491C527.055 -55.7491 535.996 -171.347 431.729 -130.028L315.212 -281.198L305.151 -269.352L283.055 -217.983Z" fill="#F9F9F9"/>
<path d="M326.215 -290.39C327.181 -289.637 328.068 -288.755 328.852 -287.744L434.772 -151.253C461.142 -163.169 492.191 -159.786 515.705 -141.464C539.219 -123.142 550.089 -93.861 544.979 -65.3788L703.222 3.9662C710.812 7.29581 714.265 16.1386 710.939 23.7257C707.613 31.3128 698.768 34.769 691.18 31.4434L521.123 -43.0804C513.828 -46.2757 510.309 -54.6023 513.087 -62.0566C520.587 -82.182 514.23 -104.583 497.267 -117.801C480.304 -131.019 457.028 -131.708 439.346 -119.516C432.797 -115 423.863 -116.381 418.981 -122.669L305.151 -269.352C300.072 -275.897 301.261 -285.319 307.805 -290.399C313.338 -294.692 320.931 -294.506 326.215 -290.39Z" fill="#BC8173"/>
<path d="M44.5241 92.2877L54.7784 100.278L46.7882 110.532C41.6966 117.067 42.8663 126.492 49.4006 131.584C55.935 136.675 65.3604 135.506 70.4521 128.971L78.4423 118.717L88.6966 126.707C95.231 131.799 104.656 130.629 109.748 124.095C114.84 117.56 113.67 108.135 107.136 103.043L96.8813 95.0531L104.872 84.7987C109.963 78.2643 108.793 68.8389 102.259 63.7473C95.7247 58.6557 86.2993 59.8253 81.2077 66.3597L73.2174 76.6141L62.9631 68.6238C56.4287 63.5322 47.0033 64.7019 41.9117 71.2363C36.82 77.7706 37.9897 87.1961 44.5241 92.2877Z" fill="#31BEBE"/>
<path d="M319.839 -20.2626C324.473 -16.6516 326.736 -10.4841 325.09 -4.46493C322.904 3.52583 314.652 8.23067 306.663 6.0435L206.354 -21.4095C198.363 -23.5935 193.659 -31.8465 195.845 -39.8358C198.032 -47.8266 206.283 -52.5314 214.272 -50.3443L314.581 -22.8913C316.552 -22.3521 318.323 -21.4439 319.839 -20.2626Z" fill="#FABE2C"/>
<path d="M347.862 21.8569C348.769 22.5637 349.608 23.3873 350.359 24.3251C355.537 30.7921 354.492 40.2309 348.025 45.4083L213.214 153.341C206.747 158.518 197.313 157.475 192.131 151.006C186.954 144.539 187.999 135.1 194.466 129.922L329.276 21.9902C334.805 17.5634 342.509 17.6853 347.862 21.8569Z" fill="#FABE2C"/>
<path d="M398.369 61.2139C404.162 65.7284 405.906 73.9304 402.15 80.49L345.932 178.669C341.815 185.858 332.65 188.349 325.46 184.232C318.279 180.124 315.781 170.951 319.897 163.761L376.116 65.5815C380.233 58.3928 389.397 55.9017 396.587 60.0185C397.217 60.38 397.812 60.78 398.369 61.2139Z" fill="#FED843"/>
<path d="M458.669 87.9197C461.697 90.2793 463.825 93.7944 464.334 97.9045L481.054 232.634C482.075 240.854 476.237 248.346 468.016 249.366C459.796 250.386 452.304 244.549 451.283 236.328L434.564 101.599C433.543 93.3785 439.38 85.8865 447.602 84.8662C451.713 84.3567 455.641 85.5601 458.669 87.9197Z" fill="#FED843"/>
<path d="M250.184 199.295C243.649 194.203 234.224 195.373 229.132 201.908C224.04 208.442 225.21 217.867 231.744 222.959C238.279 228.051 247.704 226.882 252.796 220.347C257.888 213.812 256.718 204.387 250.184 199.295Z" fill="#FED843"/>
<path d="M196.994 46.2917C190.46 41.1999 181.034 42.3695 175.943 48.9042C170.851 55.4389 172.02 64.8641 178.555 69.9559C185.09 75.0478 194.515 73.8781 199.607 67.3434C204.699 60.8088 203.529 51.3836 196.994 46.2917Z" fill="#AD77E3"/>
<path d="M229.132 201.908C224.04 208.443 225.21 217.868 231.744 222.959L250.184 199.295C243.649 194.204 234.224 195.373 229.132 201.908Z" fill="#FABE2C"/>
<path d="M424.088 314.518C444.53 330.447 448.202 360.036 432.273 380.479C416.344 400.921 386.755 404.593 366.312 388.664C345.87 372.736 342.198 343.146 358.126 322.703C374.055 302.261 403.645 298.589 424.088 314.518Z" fill="#FF6666"/>
</g>
<defs>
<clipPath id="clip0_1304_21">
<rect width="512" height="512" fill="white" transform="translate(403.869 418.565) rotate(-142.074)"/>
</clipPath>
</defs>
</svg>
