<svg width="522" height="679" viewBox="0 0 522 679" fill="none" xmlns="http://www.w3.org/2000/svg">
<g style="mix-blend-mode:multiply" opacity="0.1" clip-path="url(#clip0_8_127)">
<path d="M95.6515 488.098C90.6148 485.468 87.4966 480.218 87.5973 474.538C89.2583 380.02 -54.9134 336.619 -56.3685 336.193C-64.315 333.86 -68.873 325.533 -66.548 317.586C-64.2229 309.64 -55.9048 305.078 -47.9562 307.397C-46.2733 307.888 -6.27813 319.713 33.9947 345.412C80.0636 374.809 107.809 410.654 115.446 450.19C152.254 433.861 197.524 436.144 247.976 457.146C292.08 475.502 324.641 501.568 326.007 502.668C332.456 507.869 333.468 517.312 328.269 523.761C323.067 530.209 313.627 531.218 307.177 526.022C306.002 525.077 187.993 431.576 111.382 486.957C106.778 490.286 100.687 490.727 95.6515 488.098Z" fill="#E2DFF4"/>
<path d="M111.382 486.957C187.992 431.575 306.002 525.077 307.177 526.022C313.627 531.218 323.068 530.209 328.269 523.76C333.468 517.312 332.456 507.869 326.007 502.668C324.642 501.567 292.08 475.502 247.976 457.146C197.525 436.143 152.254 433.861 115.446 450.19L95.6511 488.099C100.687 490.727 106.778 490.286 111.382 486.957Z" fill="#BEBCDD"/>
<path d="M301.237 592.47C302.235 588.332 301.422 583.97 299.015 580.457C295.364 575.155 211.134 454.529 110.824 459.04C57.1942 374.157 -89.9252 373.968 -96.3626 374.004C-100.621 374.036 -104.665 375.862 -107.49 379.046L-144.41 420.606L-135.519 438.003L32.0527 476.731C32.0527 476.731 44.0338 592.054 139.177 532.668L280.966 660.435L288.734 646.974L301.237 592.47Z" fill="#F9F9F9"/>
<path d="M288.23 646.522L301.239 592.471C302.235 588.333 301.425 583.966 299.013 580.459C295.363 575.153 211.134 454.535 110.825 459.039L61.4 553.693C87.825 567.491 119.902 563.465 143.699 547.003L271.038 664.895L288.739 646.981L288.23 646.522Z" fill="#E2DFF4"/>
<path d="M271.793 671.455C270.708 670.888 269.677 670.179 268.724 669.326L139.998 554.094C116.199 570.555 85.0474 572.808 58.6233 559.01C32.1992 545.212 16.2436 518.362 16.1511 489.425L-151.977 449.65C-160.043 447.738 -165.029 439.66 -163.121 431.599C-161.213 423.538 -153.133 418.548 -145.07 420.456L35.6119 463.202C43.3619 465.034 48.3204 472.593 46.9268 480.425C43.166 501.571 53.4462 522.465 72.5086 532.419C91.571 542.372 114.592 538.867 129.794 523.696C135.425 518.076 144.462 517.829 150.394 523.138L288.734 646.974C294.906 652.499 295.43 661.982 289.906 668.154C285.234 673.373 277.731 674.554 271.793 671.455Z" fill="#BC8173"/>
<path d="M139.998 554.094L268.724 669.326C269.678 670.178 270.709 670.888 271.793 671.455C277.73 674.553 285.234 673.373 289.905 668.154C295.43 661.981 294.906 652.499 288.733 646.973L150.393 523.137C144.461 517.828 135.424 518.076 129.793 523.696C114.591 538.867 91.5701 542.372 72.5077 532.418L58.622 559.011C85.0469 572.809 116.199 570.557 139.998 554.094Z" fill="#865240"/>
<path d="M480.121 244.381L468.597 238.364L474.614 226.841C478.449 219.497 475.604 210.436 468.261 206.601C460.918 202.767 451.856 205.612 448.022 212.955L442.005 224.478L430.481 218.461C423.138 214.627 414.076 217.471 410.242 224.814C406.408 232.158 409.252 241.219 416.596 245.054L428.119 251.071L422.102 262.594C418.268 269.937 421.112 278.999 428.455 282.833C435.798 286.668 444.86 283.823 448.694 276.48L454.711 264.956L466.235 270.974C473.578 274.808 482.64 271.963 486.474 264.62C490.308 257.277 487.464 248.215 480.121 244.381Z" fill="#31BEBE"/>
<path d="M229.517 404.58C224.309 401.861 220.975 396.2 221.512 389.983C222.227 381.73 229.498 375.619 237.75 376.334L341.36 385.312C349.614 386.024 355.724 393.298 355.009 401.55C354.295 409.803 347.024 415.915 338.772 415.199L235.161 406.221C233.126 406.045 231.221 405.47 229.517 404.58Z" fill="#FABE2C"/>
<path d="M194.38 368.183C193.361 367.651 192.387 366.991 191.48 366.204C185.224 360.773 184.556 351.3 189.987 345.044L303.204 214.64C308.636 208.385 318.104 207.716 324.364 213.148C330.619 218.579 331.287 228.052 325.856 234.308L212.639 364.711C207.997 370.06 200.396 371.324 194.38 368.183Z" fill="#FABE2C"/>
<path d="M137.623 338.544C131.112 335.144 127.922 327.389 130.438 320.261L168.096 213.577C170.854 205.765 179.421 201.668 187.234 204.425C195.037 207.175 199.143 215.751 196.386 223.564L158.728 330.248C155.971 338.06 147.403 342.157 139.59 339.4C138.906 339.157 138.249 338.871 137.623 338.544Z" fill="#FED843"/>
<path d="M73.5041 323.111C70.1012 321.334 67.3763 318.258 66.1366 314.307L25.475 184.776C22.9933 176.873 27.3895 168.454 35.2936 165.973C43.1963 163.492 51.6155 167.888 54.0971 175.791L94.7588 305.322C97.2404 313.225 92.8442 321.644 84.9402 324.125C80.9873 325.365 76.9071 324.888 73.5041 323.111Z" fill="#FED843"/>
<path d="M258.578 176.079C265.921 179.913 274.983 177.069 278.817 169.725C282.652 162.382 279.807 153.32 272.464 149.486C265.121 145.651 256.059 148.496 252.225 155.839C248.39 163.183 251.235 172.244 258.578 176.079Z" fill="#FED843"/>
<path d="M338.4 317.031C345.743 320.866 354.805 318.021 358.639 310.678C362.474 303.334 359.629 294.273 352.286 290.438C344.942 286.604 335.881 289.448 332.046 296.792C328.212 304.135 331.056 313.197 338.4 317.031Z" fill="#AD77E3"/>
<path d="M278.817 169.725C282.652 162.381 279.807 153.32 272.464 149.486L258.578 176.078C265.921 179.913 274.983 177.068 278.817 169.725Z" fill="#FABE2C"/>
<path d="M66.7971 93.9872C43.8247 81.9918 34.8944 53.5437 46.8898 30.5713C58.8853 7.59891 87.3334 -1.3314 110.306 10.664C133.278 22.6595 142.208 51.1076 130.213 74.08C118.218 97.0523 89.7695 105.983 66.7971 93.9872Z" fill="#FF6666"/>
</g>
<defs>
<clipPath id="clip0_8_127">
<rect width="512" height="512" fill="white" transform="translate(67.9866 -12) rotate(27.5721)"/>
</clipPath>
</defs>
</svg>
