<svg width="438" height="419" viewBox="0 0 438 419" fill="none" xmlns="http://www.w3.org/2000/svg">
<g style="mix-blend-mode:multiply" opacity="0.1" clip-path="url(#clip0_8_147)">
<path d="M466.535 -78.3613C471.017 -74.8689 473.141 -69.1445 472.021 -63.5746C453.4 29.1053 587.424 97.7114 588.778 98.3919C596.176 102.115 599.163 111.126 595.448 118.525C591.733 125.924 582.73 128.917 575.328 125.207C573.76 124.422 536.542 105.601 501.544 73.082C461.508 35.8848 440.657 -4.36301 440.25 -44.6284C401.107 -35.1807 356.984 -45.5623 311.128 -75.2905C271.042 -101.274 243.695 -132.768 242.549 -134.095C237.14 -140.37 237.841 -149.841 244.115 -155.251C250.391 -160.659 259.858 -159.955 265.27 -153.685C266.256 -152.544 365.538 -39.3555 450.856 -80.0665C455.983 -82.514 462.054 -81.853 466.535 -78.3613Z" fill="#E2DFF4"/>
<path d="M450.856 -80.0665C365.539 -39.3549 266.256 -152.544 265.27 -153.685C259.858 -159.955 250.391 -160.659 244.115 -155.251C237.841 -149.841 237.14 -140.37 242.549 -134.095C243.694 -132.767 271.042 -101.274 311.128 -75.2905C356.983 -45.5615 401.107 -35.1807 440.25 -44.6284L466.536 -78.362C462.054 -81.853 455.983 -82.5139 450.856 -80.0665Z" fill="#BEBCDD"/>
<path d="M283.055 -217.983C281.329 -214.092 281.346 -209.655 283.082 -205.766C285.721 -199.895 346.9 -66.0942 446.387 -52.5037C483.888 40.636 628.578 67.2627 634.917 68.3849C639.112 69.1184 643.418 68.0496 646.769 65.4249L690.557 31.1766L684.938 12.4649L527.055 -55.7491C527.055 -55.7491 535.996 -171.347 431.729 -130.028L315.212 -281.198L305.151 -269.352L283.055 -217.983Z" fill="#F9F9F9"/>
<path d="M326.215 -290.39C327.181 -289.637 328.067 -288.755 328.852 -287.744L434.772 -151.253C461.142 -163.169 492.191 -159.786 515.705 -141.464C539.219 -123.142 550.089 -93.861 544.979 -65.3787L703.221 3.96629C710.812 7.2959 714.265 16.1387 710.939 23.7258C707.613 31.3129 698.768 34.7691 691.18 31.4435L521.122 -43.0803C513.828 -46.2756 510.309 -54.6022 513.087 -62.0565C520.587 -82.1819 514.23 -104.583 497.267 -117.801C480.304 -131.019 457.028 -131.708 439.346 -119.516C432.797 -115 423.863 -116.381 418.981 -122.669L305.151 -269.352C300.072 -275.897 301.261 -285.319 307.805 -290.398C313.338 -294.692 320.931 -294.506 326.215 -290.39Z" fill="#BC8173"/>
<path d="M44.524 92.2879L54.7784 100.278L46.7881 110.532C41.6965 117.067 42.8662 126.492 49.4006 131.584C55.935 136.676 65.3604 135.506 70.452 128.971L78.4422 118.717L88.6966 126.707C95.231 131.799 104.656 130.629 109.748 124.095C114.84 117.561 113.67 108.135 107.136 103.043L96.8812 95.0532L104.871 84.7989C109.963 78.2645 108.793 68.8391 102.259 63.7475C95.7247 58.6558 86.2992 59.8255 81.2076 66.3599L73.2174 76.6142L62.963 68.624C56.4286 63.5324 47.0032 64.7021 41.9116 71.2364C36.82 77.7708 37.9896 87.1963 44.524 92.2879Z" fill="#31BEBE"/>
<path d="M319.839 -20.2625C324.473 -16.6516 326.736 -10.4841 325.09 -4.46487C322.904 3.52589 314.652 8.23073 306.663 6.04356L206.354 -21.4094C198.363 -23.5934 193.659 -31.8464 195.845 -39.8357C198.031 -47.8265 206.283 -52.5314 214.272 -50.3442L314.581 -22.8912C316.552 -22.352 318.323 -21.4439 319.839 -20.2625Z" fill="#FABE2C"/>
<path d="M347.862 21.8569C348.769 22.5637 349.608 23.3873 350.36 24.3251C355.537 30.7922 354.492 40.2309 348.025 45.4084L213.214 153.341C206.747 158.518 197.313 157.475 192.131 151.006C186.954 144.539 187.999 135.1 194.466 129.923L329.276 21.9902C334.805 17.5634 342.509 17.6854 347.862 21.8569Z" fill="#FABE2C"/>
<path d="M398.368 61.2141C404.162 65.7285 405.906 73.9306 402.15 80.4902L345.932 178.669C341.815 185.858 332.65 188.349 325.46 184.232C318.278 180.125 315.78 170.951 319.897 163.761L376.115 65.5816C380.232 58.393 389.397 55.9019 396.587 60.0186C397.217 60.3801 397.811 60.7801 398.368 61.2141Z" fill="#FED843"/>
<path d="M458.669 87.9198C461.697 90.2793 463.825 93.7945 464.334 97.9045L481.054 232.634C482.075 240.854 476.237 248.346 468.016 249.366C459.796 250.387 452.304 244.549 451.283 236.328L434.564 101.599C433.543 93.3786 439.38 85.8866 447.602 84.8663C451.713 84.3568 455.641 85.5602 458.669 87.9198Z" fill="#FED843"/>
<path d="M250.184 199.295C243.649 194.203 234.224 195.373 229.132 201.908C224.04 208.442 225.21 217.868 231.744 222.959C238.279 228.051 247.704 226.882 252.796 220.347C257.888 213.812 256.718 204.387 250.184 199.295Z" fill="#FED843"/>
<path d="M196.994 46.2918C190.46 41.2 181.035 42.3696 175.943 48.9043C170.851 55.439 172.02 64.8641 178.555 69.956C185.09 75.0479 194.515 73.8782 199.607 67.3435C204.699 60.8088 203.529 51.3837 196.994 46.2918Z" fill="#AD77E3"/>
<path d="M229.132 201.908C224.04 208.443 225.21 217.868 231.744 222.96L250.184 199.295C243.649 194.204 234.224 195.373 229.132 201.908Z" fill="#FABE2C"/>
<path d="M424.088 314.518C444.53 330.447 448.202 360.037 432.273 380.479C416.344 400.921 386.755 404.593 366.312 388.665C345.87 372.736 342.198 343.146 358.126 322.703C374.055 302.261 403.645 298.589 424.088 314.518Z" fill="#FF6666"/>
</g>
<defs>
<clipPath id="clip0_8_147">
<rect width="512" height="512" fill="white" transform="translate(403.869 418.565) rotate(-142.074)"/>
</clipPath>
</defs>
</svg>
